<svg xmlns="http://www.w3.org/2000/svg" width="256" height="256"><path fill-opacity=".016" d="M0 128.004v128.004l128.25-.254 128.25-.254.254-127.75L257.008 0H0v128.004m.485.496c0 70.4.119 99.053.265 63.672.146-35.38.146-92.98 0-128C.604 29.153.485 58.1.485 128.5" fill="#1976D2" fill-rule="evenodd"/><path fill-opacity=".319" d="M169.937 2.585c-4.955 1.74-9.735 2.453-19.5 2.911-11.366.533-13.681.951-19.06 3.443-13.157 6.096-19.435 15.338-20.19 29.722-.798 15.196 3.082 28.189 11.004 36.858l5.05 5.525L124.5 85c-1.507 2.175-3.249 4.368-3.87 4.873-.622.505-8.051 3.294-16.511 6.197-8.844 3.036-16.658 6.354-18.386 7.808-3.693 3.107-5.733 7.766-5.733 13.09V121H65.223c-16.07 0-19.223.886-19.223 5.402 0 4.883 2.392 5.598 18.738 5.598h15.08l.341 10.43c.378 11.554 1.401 13.927 7.933 18.408 2.859 1.961 4.382 2.277 9.451 1.965 7.372-.453 11.416-3.022 14.371-9.126 1.716-3.543 2.086-6.206 2.086-14.993 0-5.912.415-10.684.929-10.684.511 0 1.411 2.363 1.999 5.25 3.885 19.059 3.795 17.622 1.744 27.931l-1.927 9.682-15.455.318c-13.936.288-15.595.51-16.873 2.26-1.851 2.536-1.796 5.037.154 6.988 1.282 1.282 4.204 1.571 15.862 1.571h14.29l-.44 2.302c-.38 1.983-2.4 2.951-14.612 7.001-26.472 8.779-32.08 11.132-33.053 13.869-.704 1.979.68 6.725 6.824 23.405 4.239 11.508 8.532 21.77 9.541 22.804 2.619 2.685 5.834 1.553 12.253-4.314 5.088-4.65 7.927-9.323 9.152-15.067.482-2.258 2.465-3.163 20.443-9.332 10.95-3.757 21.317-7.688 23.038-8.734 2.235-1.36 4.473-4.61 7.834-11.374l4.704-9.471 5.797 3.186 5.796 3.187v27.069c0 19.72.326 27.395 1.2 28.269.868.868 8.01 1.2 25.845 1.2 28.146 0 27.969.051 27.939-8.079-.033-8.795-8.349-17.68-18.891-20.185L203 226.527v-4.764c0-3.534.381-4.763 1.477-4.763.812 0 2.194-1.095 3.071-2.433 1.825-2.785.813-5.768-2.571-7.579-2.873-1.538-2.814-8.588.08-9.506 2.723-.864 3.944-4.367 3.937-11.297-.009-10.064-.927-11.66-14.474-25.17L182 148.53v-15.348l10.43-.341c8.678-.284 10.904-.692 13.25-2.433 2.927-2.171 18.963-24.117 22.374-30.618 7.79-14.851-9.379-30.568-23.807-21.794-1.697 1.032-5.912 5.955-9.367 10.94-6.252 9.022-6.3 9.064-10.55 9.064-4.521 0-5.27-.797-12.758-13.583l-1.806-3.083 5.447-5.151c2.996-2.834 6.758-7.746 8.36-10.917 2.637-5.219 2.914-6.715 2.92-15.766.006-8.642-.341-10.747-2.555-15.5l-2.562-5.5 2.288-3.362c4.148-6.096 4.285-15.404.322-21.921-2.359-3.879-4.521-3.976-14.049-.632M165 37.559c-3.575 1.252-10.055 2.768-14.399 3.369-11.4 1.578-16.824 5.643-22.516 16.876l-2.181 4.305 2.143 3.467C132.379 72.585 139.391 76 149.453 76c14.415 0 26.469-11.848 26.525-26.072.021-5.386-2.483-15.075-3.822-14.787-.361.077-3.581 1.165-7.156 2.418m45.828 49.261c-.919.374-4.969 5.405-9 11.18l-7.328 10.5-5.75.3-5.75.3V122l7.75-.015c4.262-.009 8.253-.346 8.868-.75 2.488-1.635 19.376-26.894 19.379-28.985.003-2.457-3.252-6.292-5.247-6.18-.687.039-2.002.376-2.922.75m-101.654 19.053c-8.979 3.164-16.734 6.4-17.234 7.19-.5.791-.916 9.167-.925 18.616-.017 18.915.398 20.321 6 20.321 5.022 0 5.985-2.767 5.985-17.199 0-15.069-1.135-13.652 15.5-19.359 12.172-4.176 14.5-5.637 14.5-9.097 0-2.783-3.281-6.369-5.75-6.286-.963.033-9.097 2.649-18.076 5.814m-80.951 16.684C24.106 125.44 26.572 132 31.772 132c2.141 0 5.228-3.379 5.228-5.723 0-1.653-3.624-5.277-5.277-5.277-.703 0-2.278.701-3.5 1.557M66 173c-1.1 1.1-2 2.83-2 3.845 0 2.364 3.072 5.155 5.674 5.155 2.375 0 5.326-2.952 5.326-5.329 0-2.078-3.485-5.671-5.5-5.671-.825 0-2.4.9-3.5 2m14.881 36.295l-2.619 1.205 5.119 13.739c2.815 7.556 5.569 13.607 6.119 13.445.55-.161 1.8-1.905 2.778-3.875l1.778-3.582-4.191-11.113c-2.305-6.113-4.68-11.094-5.278-11.069-.598.025-2.266.587-3.706 1.25m102.117 31.955L183 245h16c9.053 0 16-.399 16-.918 0-.506-1.687-1.968-3.75-3.25-3.236-2.012-5.429-2.401-16.002-2.832l-12.252-.5.002 3.75" fill="#1976D2" fill-rule="evenodd"/><path fill-opacity=".38" d="M171 2.703c-5.243 1.996-9.233 2.617-20.635 3.212-12.636.659-14.745 1.036-19.894 3.555-11.85 5.798-18.501 15.999-19.24 29.51-.764 13.964 3.902 28.87 11.679 37.307 2.25 2.44 4.09 4.711 4.09 5.046 0 .335-1.387 2.576-3.082 4.982-2.977 4.222-3.609 4.553-18.348 9.597-8.396 2.874-16.71 6.103-18.476 7.177-3.908 2.377-7.042 8.874-7.072 14.661L80 122H64.035c-14.76 0-16.043.146-17 1.934-1.47 2.748-1.304 3.797.965 6.066 1.822 1.822 3.333 2 17 2h15v8.843c0 10.775 2.391 16.338 8.575 19.949 4.867 2.842 13.04 2.632 17.155-.44 5.948-4.441 6.732-6.561 7.27-19.669.401-9.76.789-12.183 1.953-12.183 1.054 0 2.09 3.168 3.764 11.5l2.311 11.5-2.014 9.889c-1.108 5.439-2.014 10.052-2.014 10.25 0 .199-6.905.361-15.345.361-14.244 0-15.479.148-17.217 2.068-1.71 1.89-1.742 2.3-.368 4.75l1.504 2.682 14.713.277c14.835.279 16.022.615 13.91 3.938-.424.668-9.493 4.188-20.153 7.822-21.416 7.3-25.885 9.19-27.36 11.573-.953 1.538.465 5.807 13.521 40.708 3.085 8.247 6.818 8.491 15.346 1.003 3.944-3.463 8.447-11.474 8.453-15.038.003-2.076 1.951-2.955 21.453-9.688 24.557-8.477 25.188-8.913 30.87-21.345 1.949-4.262 3.804-7.75 4.123-7.75.319 0 3.048 1.393 6.065 3.095l5.485 3.096v26.833c0 23.06.221 27.054 1.571 28.405 1.343 1.342 5.121 1.571 25.944 1.571 24.051 0 24.392-.029 25.928-2.223 3.522-5.028 1.231-13.14-5.401-19.124-6.665-6.015-9.916-7.025-24.542-7.622l-13-.531v-16.208c0-13.099-.288-16.485-1.5-17.651-.825-.794-8.671-5.425-17.436-10.292-16.02-8.896-25.228-15.991-28.871-22.247L132.887 157h42.646l11.233 11.266L198 179.531v7.58c0 6.393.324 7.872 2.068 9.451 1.889 1.71 2.301 1.742 4.75.369 2.571-1.44 2.694-1.888 2.97-10.786.363-11.656-.126-12.519-14.818-26.173L182 149.777v-16.486l9.851-.543c5.803-.32 11.05-1.163 12.768-2.051 4.127-2.134 23.433-29.713 24.712-35.301 2.163-9.452-4.683-18.346-14.765-19.182-8.253-.684-11.438 1.381-19.122 12.403L188.902 98l-4.701-.038-4.701-.038-5.07-8.163-5.071-8.163 5.835-5.708c8.495-8.313 11.306-14.875 11.306-26.39 0-7.685-.394-9.84-2.696-14.752l-2.695-5.752 3.041-5.748c2.547-4.813 2.953-6.512 2.499-10.444-.552-4.784-3.033-10.712-5.039-12.039-1.671-1.106-3.489-.774-10.61 1.938m.5 10.969c-2.407.921-9.576 1.825-18 2.27-8.711.461-15.322 1.31-17.5 2.248-4.643 1.999-9.718 6.364-11.574 9.954-1.962 3.794-3.713 13.377-2.908 15.914.56 1.764 1.143 1.423 5.105-2.983 5.586-6.214 12.702-9.735 22.377-11.073 16.375-2.264 27-8.116 27-14.87 0-1.723-.113-3.1-.25-3.062-.137.039-2.05.76-4.25 1.602m-4.332 22.853c-2.976 1.293-11.897 3.268-22.345 4.947-7.297 1.173-19.895 16.121-18.447 21.889.739 2.947 6.935 9.084 11.225 11.12 5.421 2.572 12.335 2.97 18.825 1.083 8.33-2.421 16.743-10.756 19.09-18.911 1.815-6.307 1.468-12.053-1.096-18.191-1.602-3.833-2.396-4.046-7.252-1.937m39.029 54.725c-2.127 2.888-5.551 7.794-7.61 10.904-3.947 5.962-5.478 6.81-12.337 6.832L182 109v13.075l9.192-.287 9.193-.288 9.27-13c9.835-13.793 11.182-17.528 7.516-20.845-3.516-3.182-6.768-2.116-10.974 3.595m-97.134 14.187c-10.352 3.559-16.034 6.044-17.25 7.546-1.586 1.959-1.813 4.293-1.813 18.673 0 16.116.048 16.483 2.455 18.889 2.975 2.976 5.87 3.13 8.545.455 1.794-1.794 2-3.333 2-14.929 0-9.872.338-13.266 1.429-14.357.786-.786 6.97-3.329 13.743-5.651 6.773-2.322 12.88-4.692 13.572-5.265 1.766-1.466 1.565-7.346-.315-9.227-2.426-2.425-5.716-1.857-22.366 3.866M26.98 124.038c-2.362 4.412 2.092 9.161 6.646 7.086 2.627-1.196 3.307-5.791 1.174-7.924-1.951-1.951-6.594-1.454-7.82.838m100.177 50.681c-.562 2.63-1.58 7.819-2.263 11.533-.682 3.713-1.95 7.367-2.817 8.12-.867.752-6.752 3.057-13.077 5.122-6.325 2.066-11.847 4.069-12.272 4.453-.63.569 3.588 13.696 4.788 14.901.38.381 38.435-12.57 40.163-13.668 1.129-.719 9.67-17.209 9.134-17.637-.172-.138-2.529-1.53-5.237-3.094-2.708-1.563-7.73-5.468-11.16-8.677l-6.237-5.834-1.022 4.781m-61.657-.36c-1.764 2.692-1.139 5.228 1.655 6.724 4.55 2.435 9.186-2.388 6.393-6.65-2.077-3.171-5.995-3.207-8.048-.074m16.822 34.024c-1.748.614-3.441 1.384-3.761 1.711-.462.471 8.933 27.289 10.089 28.798.165.215 1.189-.685 2.276-2 3.578-4.331 3.444-6.901-.965-18.504-2.276-5.988-4.211-10.941-4.3-11.005-.088-.064-1.591.386-3.339 1M199.2 208.2c-.66.66-1.2 2.37-1.2 3.8 0 1.43.54 3.14 1.2 3.8.66.66 2.37 1.2 3.8 1.2 1.43 0 3.14-.54 3.8-1.2.66-.66 1.2-2.37 1.2-3.8 0-1.43-.54-3.14-1.2-3.8-.66-.66-2.37-1.2-3.8-1.2-1.43 0-3.14.54-3.8 1.2M182 241.5v4.5h17c9.35 0 17-.372 17-.826 0-1.471-4.432-5.039-8.232-6.626-2.583-1.08-7.041-1.548-14.736-1.548H182v4.5" fill="#1976D2" fill-rule="evenodd"/><path fill-opacity=".981" d="M172 2.71c-5.412 2.141-8.88 2.69-20.722 3.28-13.234.659-14.672.929-20.685 3.89-7.982 3.929-14.761 11.163-17.242 18.4-1.203 3.509-1.767 8.007-1.721 13.72.116 14.44 4.784 27.522 12.49 35.001l4.052 3.932-3.336 4.667c-3.769 5.274-5.446 6.133-24.042 12.313-10.493 3.488-13.227 4.817-15.696 7.628-3.082 3.51-5.083 8.897-5.092 13.709L80 122H64.622c-16.834 0-18.051.397-17.444 5.69l.322 2.81 16.25.275 16.25.275.006 7.725c.007 10.199 1.44 14.906 5.893 19.36 6.858 6.857 18.464 5.774 24.193-2.259 2.162-3.031 2.443-4.601 2.747-15.372.314-11.086 1.112-14.27 3.246-12.952.374.232 1.69 5.714 2.924 12.184l2.245 11.764-1.885 10-1.884 10-15.423.277c-9.295.167-15.947.712-16.742 1.372-.726.603-1.32 2.402-1.32 3.998 0 4.112 2.757 4.853 18.065 4.853 11.987 0 12.935.138 12.935 1.878 0 1.032-.562 2.31-1.25 2.839-.687.529-9.36 3.706-19.273 7.061C68.996 202.4 67 203.33 67 206.584c0 2.889 13.226 39.505 15.592 43.166 1.994 3.085 4.784 2.823 10.029-.944 5.42-3.892 9.991-10.55 10.888-15.858.367-2.171.798-3.948.958-3.948 2.418 0 43.368-15.436 44.989-16.958 1.234-1.16 4.147-6.113 6.472-11.006l4.228-8.897 5.906 3.18 5.905 3.181.016 26.75c.016 25.405.118 26.851 2.017 28.75 1.884 1.884 3.333 2 24.918 2 12.605 0 23.608-.265 24.452-.588.843-.324 2.03-2.095 2.638-3.935 2.665-8.076-4.336-18.211-15.451-22.37-4.524-1.693-7.886-2.107-17.095-2.107H182v-16.345c0-14.319-.217-16.534-1.75-17.87-.963-.838-8.725-5.46-17.25-10.27-17.019-9.604-22.731-13.78-27.104-19.817-4.957-6.843-5.332-6.703 17.854-6.653l20.75.044 11.75 11.356L198 178.801v7.165c0 3.941.466 8.036 1.035 9.1 1.397 2.609 6.533 2.609 7.93 0 1.56-2.916 1.286-16.691-.395-19.866-.787-1.485-6.637-7.868-13-14.184L182 149.533v-17.356l10.922-.339c12.736-.394 12.827-.449 21.507-12.838C229.126 98.019 229 98.249 229 92.585c0-3.839-.617-6.196-2.25-8.595-3.865-5.678-7.19-7.49-13.75-7.49-7.553 0-9.67 1.574-17.944 13.338-6.404 9.106-6.469 9.162-10.701 9.162-4.166 0-4.354-.148-8.699-6.866-7.268-11.234-7.175-10.938-4.156-13.313 14.702-11.564 19.158-29.825 11.211-45.943l-2.279-4.623 2.457-3.185c4.562-5.916 3.786-20.083-1.295-23.642C179.12-.305 179.879-.406 172 2.71m-2 10.925c-2.475.791-9.9 1.687-16.5 1.991-13.314.613-17.204 1.5-22.808 5.202-5.837 3.855-8.914 9.949-9.48 18.778-.329 5.115-.126 7.394.656 7.394.623 0 1.132-.376 1.132-.835 0-1.619 9.366-10.311 13.239-12.287 2.158-1.101 8.103-2.629 13.212-3.396C166.651 27.9 177 21.745 177 14.096c0-2.398-.776-2.449-7-.461m-3.339 22.483c-2.662 1.052-8.962 2.616-14 3.474-5.441.928-10.848 2.54-13.316 3.971-4.103 2.38-9.497 8.817-12.767 15.236-1.602 3.145-1.587 3.45.308 6.517 6.018 9.737 18.407 14.073 30.152 10.554 5.435-1.628 12.94-7.664 16.313-13.119 4.127-6.675 4.794-16.219 1.645-23.539-1.233-2.866-2.524-5.166-2.869-5.11-.345.057-2.805.964-5.466 2.016M135.32 87.634c-1.587 2.422-1.536 2.563 1.945 5.433 2.044 1.684 4.328 4.919 5.333 7.55 1.517 3.973 1.589 5.239.523 9.243-1.585 5.957-6.16 10.66-12.377 12.725-4.186 1.39-4.832 1.945-4.398 3.772.28 1.179 1.278 6.081 2.218 10.893l1.71 8.75H172l-.021-20.75-.02-20.75-5.923-9.159-5.922-9.16-7.807.531c-4.294.291-9.506.059-11.582-.517-3.481-.966-3.902-.854-5.405 1.439M211 86.168c-1.592.537-5.046 4.566-9.507 11.088l-7.006 10.244-6.244.298-6.243.297V123h8.309c5.141 0 8.909-.477 9.882-1.25C203.022 119.501 220 94.302 220 92.35c0-2.519-2.493-5.985-4.719-6.563-.98-.254-2.906-.082-4.281.381m-101.409 18.756c-9.996 3.423-17.458 6.541-18.25 7.625-.999 1.366-1.341 6.248-1.341 19.142 0 15.976.154 17.463 2 19.309 2.878 2.878 7.392 2.589 9.927-.635 1.851-2.352 2.073-4 2.073-15.377 0-9.001.367-13.033 1.25-13.732.688-.543 6.425-2.666 12.75-4.716 11.826-3.833 16-6.609 16-10.641 0-2.259-4.245-6.933-6.205-6.832-.712.036-8.904 2.672-18.204 5.857M28.05 123.44c-.657.791-1.049 2.704-.872 4.25.587 5.125 8.822 4.087 8.822-1.112 0-4.2-5.325-6.302-7.95-3.138m99.467 46.784c-.242.702-1.311 5.899-2.375 11.549-1.064 5.65-2.465 10.911-3.113 11.692-.648.78-6.765 3.281-13.593 5.556-6.829 2.276-12.599 4.44-12.822 4.809-.314.52 4.943 15.044 5.738 15.852.257.261 39.317-13.359 40.618-14.164 1.137-.702 9.03-15.85 9.03-17.329 0-.471-3.516-3.146-7.814-5.946-4.298-2.799-9.483-6.936-11.521-9.193-2.307-2.553-3.874-3.621-4.148-2.826M66.2 173.2c-2.805 2.805-.692 7.8 3.3 7.8 1.155 0 2.64-.54 3.3-1.2.66-.66 1.2-2.145 1.2-3.3 0-1.155-.54-2.64-1.2-3.3-.66-.66-2.145-1.2-3.3-1.2-1.155 0-2.64.54-3.3 1.2m15.05 35.052c-1.787.571-3.257 1.535-3.265 2.143C77.955 212.557 88.268 239 89.141 239c1.475 0 4.855-6.325 4.809-9-.052-3.055-7.382-22.353-8.586-22.604-.475-.1-2.327.286-4.114.856m118.158 1.248c-1.517 2.316-1.517 2.684 0 5 1.935 2.953 4.635 3.215 6.937.671 2.151-2.377 2.095-4.462-.174-6.516-2.586-2.34-4.862-2.056-6.763.845M182 241.5v4.5h35.374l-2.937-3.123c-4.625-4.918-8.035-5.877-20.905-5.877H182v4.5" fill="#1976D2" fill-rule="evenodd"/></svg>