<svg id="color" enable-background="new 0 0 24 24" height="512" viewBox="0 0 24 24" width="512" xmlns="http://www.w3.org/2000/svg"><path d="m21.25 4h-18.5c-1.517 0-2.75 1.233-2.75 2.75v10.5c0 1.517 1.233 2.75 2.75 2.75h18.5c1.517 0 2.75-1.233 2.75-2.75v-10.5c0-1.517-1.233-2.75-2.75-2.75z" fill="#eceff1"/><path d="m12 4h-9.25c-1.517 0-2.75 1.233-2.75 2.75v10.5c0 1.517 1.233 2.75 2.75 2.75h9.25z" fill="#cdd0d2"/><g fill="#4caf50"><path d="m7.25 16c-.414 0-.75-.336-.75-.75v-4.75c0-.551-.448-1-1-1s-1 .449-1 1v4.75c0 .414-.336.75-.75.75s-.75-.336-.75-.75v-4.75c0-1.378 1.121-2.5 2.5-2.5s2.5 1.122 2.5 2.5v4.75c0 .414-.336.75-.75.75z"/><path d="m7.25 13.25h-3.5c-.414 0-.75-.336-.75-.75s.336-.75.75-.75h3.5c.414 0 .75.336.75.75s-.336.75-.75.75z"/><path d="m11.5 16c-.414 0-.75-.336-.75-.75v-6.5c0-.414.336-.75.75-.75s.75.336.75.75v6.5c0 .414-.336.75-.75.75z"/><path d="m13.25 9.5h-3.5c-.414 0-.75-.336-.75-.75s.336-.75.75-.75h3.5c.414 0 .75.336.75.75s-.336.75-.75.75z"/><path d="m20.25 16c-.414 0-.75-.336-.75-.75v-3.676l-.599 1.048c-.268.468-1.035.468-1.303 0l-.598-1.048v3.676c0 .414-.336.75-.75.75s-.75-.336-.75-.75v-6.5c0-.34.229-.638.558-.725.326-.086.675.058.844.353l1.349 2.36 1.349-2.36c.169-.295.516-.439.844-.353.327.087.556.385.556.725v6.5c0 .414-.336.75-.75.75z"/></g><path d="m3 12.5v2.75c0 .414.336.75.75.75s.75-.336.75-.75v-2h-.75c-.414 0-.75-.336-.75-.75zm5 0c0 .414-.336.75-.75.75h-.75v2c0 .414.336.75.75.75s.75-.336.75-.75z" fill="#429846"/><path d="m8 12.5h-5c0 .414.336.75.75.75h.75 2 .75c.414 0 .75-.336.75-.75z" fill="#429846"/><path d="m12.25 12.5h-1.5v2.75c0 .414.336.75.75.75s.75-.336.75-.75z" fill="#429846"/><path d="m17 12.5h-1.5v2.75c0 .414.336.75.75.75s.75-.336.75-.75zm1.971 0h-1.442l.07.122c.134.234.393.351.651.351s.518-.117.651-.351zm2.029 0h-1.5v2.75c0 .414.336.75.75.75s.75-.336.75-.75z" fill="#429846"/></svg>