<svg enable-background="new 0 0 24 24" height="512" viewBox="0 0 24 24" width="512" xmlns="http://www.w3.org/2000/svg"><g id="color"><g><path d="m20.325 4.8h-16.65c-1.365 0-2.475 1.11-2.475 2.475v9.45c0 1.365 1.11 2.475 2.475 2.475h16.65c1.365 0 2.475-1.11 2.475-2.475v-9.45c0-1.365-1.11-2.475-2.475-2.475z" fill="#eceff1"/></g></g><g id="regular"><g><path d="m7.25 16c-.414 0-.75-.336-.75-.75v-4.75c0-.551-.448-1-1-1s-1 .449-1 1v4.75c0 .414-.336.75-.75.75s-.75-.336-.75-.75v-4.75c0-1.378 1.121-2.5 2.5-2.5s2.5 1.122 2.5 2.5v4.75c0 .414-.336.75-.75.75z"/></g><g><path d="m7.25 13.25h-3.5c-.414 0-.75-.336-.75-.75s.336-.75.75-.75h3.5c.414 0 .75.336.75.75s-.336.75-.75.75z"/></g><g><path d="m11.5 16c-.414 0-.75-.336-.75-.75v-6.5c0-.414.336-.75.75-.75s.75.336.75.75v6.5c0 .414-.336.75-.75.75z"/></g><g><path d="m13.25 9.5h-3.5c-.414 0-.75-.336-.75-.75s.336-.75.75-.75h3.5c.414 0 .75.336.75.75s-.336.75-.75.75z"/></g><g><path d="m20.25 16c-.414 0-.75-.336-.75-.75v-3.676l-.599 1.048c-.268.468-1.035.468-1.303 0l-.598-1.048v3.676c0 .414-.336.75-.75.75s-.75-.336-.75-.75v-6.5c0-.34.229-.638.558-.725.327-.086.675.058.844.353l1.349 2.36 1.349-2.36c.168-.295.514-.439.844-.353.327.087.556.385.556.725v6.5c0 .414-.336.75-.75.75z"/></g><g><g><path d="m21.25 20h-18.5c-1.517 0-2.75-1.233-2.75-2.75v-10.5c0-1.517 1.233-2.75 2.75-2.75h18.5c1.517 0 2.75 1.233 2.75 2.75v10.5c0 1.517-1.233 2.75-2.75 2.75zm-18.5-14.5c-.689 0-1.25.561-1.25 1.25v10.5c0 .689.561 1.25 1.25 1.25h18.5c.689 0 1.25-.561 1.25-1.25v-10.5c0-.689-.561-1.25-1.25-1.25z"/></g></g></g></svg>