<svg enable-background="new 0 0 24 24" height="512" viewBox="0 0 24 24" width="512" xmlns="http://www.w3.org/2000/svg"><path d="m5.5 9.5c-.552 0-1 .449-1 1v1.25h2v-1.25c0-.551-.448-1-1-1z"/><path d="m21.25 4h-18.5c-1.517 0-2.75 1.233-2.75 2.75v10.5c0 1.517 1.233 2.75 2.75 2.75h18.5c1.517 0 2.75-1.233 2.75-2.75v-10.5c0-1.517-1.233-2.75-2.75-2.75zm-13.25 11.25c0 .414-.336.75-.75.75s-.75-.336-.75-.75v-2h-2v2c0 .414-.336.75-.75.75s-.75-.336-.75-.75v-4.75c0-1.378 1.121-2.5 2.5-2.5s2.5 1.122 2.5 2.5zm5.25-5.75h-1v5.75c0 .414-.336.75-.75.75s-.75-.336-.75-.75v-5.75h-1c-.414 0-.75-.336-.75-.75s.336-.75.75-.75h3.5c.414 0 .75.336.75.75s-.336.75-.75.75zm7.75 5.75c0 .414-.336.75-.75.75s-.75-.336-.75-.75v-3.676l-.599 1.048c-.268.468-1.035.468-1.303 0l-.598-1.048v3.676c0 .414-.336.75-.75.75s-.75-.336-.75-.75v-6.5c0-.34.229-.638.558-.725.326-.086.675.058.844.353l1.349 2.36 1.349-2.36c.169-.295.516-.439.844-.353.327.087.556.385.556.725z"/></svg>